<svg width="24" height="22" viewBox="0 0 24 22" fill="none" xmlns="http://www.w3.org/2000/svg">
<path d="M14.6955 21.6707H3.61287C2.07377 21.6707 0.821289 20.4185 0.821289 18.8792V3.15096C0.821289 1.6116 2.07377 0.359375 3.61287 0.359375H14.6955C16.2346 0.359375 17.4871 1.6116 17.4871 3.15096V18.8792C17.4871 20.4185 16.2346 21.6707 14.6955 21.6707ZM3.61287 1.85875C2.90017 1.85875 2.32066 2.43851 2.32066 3.15096V18.8792C2.32066 19.5916 2.90017 20.1714 3.61287 20.1714H14.6955C15.4079 20.1714 15.9877 19.5916 15.9877 18.8792V3.15096C15.9877 2.43851 15.4079 1.85875 14.6955 1.85875H3.61287Z" fill="current"/>
<path d="M13.7897 5.33552H4.51932C4.24344 5.33552 4.01953 5.11161 4.01953 4.83573C4.01953 4.55984 4.24344 4.33594 4.51932 4.33594H13.7897C14.0656 4.33594 14.2895 4.55984 14.2895 4.83573C14.2895 5.11161 14.0656 5.33552 13.7897 5.33552Z" fill="current"/>
<path d="M13.7897 7.59236H4.51932C4.24344 7.59236 4.01953 7.36845 4.01953 7.09256C4.01953 6.81668 4.24344 6.59277 4.51932 6.59277H13.7897C14.0656 6.59277 14.2895 6.81668 14.2895 7.09256C14.2895 7.36845 14.0656 7.59236 13.7897 7.59236Z" fill="current"/>
<path d="M13.7897 9.84919H4.51932C4.24344 9.84919 4.01953 9.62529 4.01953 9.3494C4.01953 9.07351 4.24344 8.84961 4.51932 8.84961H13.7897C14.0656 8.84961 14.2895 9.07351 14.2895 9.3494C14.2895 9.62529 14.0656 9.84919 13.7897 9.84919Z" fill="current"/>
<path d="M13.7897 12.107H4.51932C4.24344 12.107 4.01953 11.8831 4.01953 11.6072C4.01953 11.3313 4.24344 11.1074 4.51932 11.1074H13.7897C14.0656 11.1074 14.2895 11.3313 14.2895 11.6072C14.2895 11.8831 14.0656 12.107 13.7897 12.107Z" fill="current"/>
<path d="M13.7897 14.3638H4.51932C4.24344 14.3638 4.01953 14.1399 4.01953 13.864C4.01953 13.5882 4.24344 13.3643 4.51932 13.3643H13.7897C14.0656 13.3643 14.2895 13.5882 14.2895 13.864C14.2895 14.1399 14.0656 14.3638 13.7897 14.3638Z" fill="current"/>
<path d="M22.3384 8.9922L14.2051 17.398L11.5967 14.7895L19.73 6.38379" fill="current"/>
<path d="M22.8689 8.46284L20.2607 5.85442C20.1185 5.71248 19.9166 5.64001 19.7244 5.63477C19.5233 5.63651 19.3316 5.71873 19.1917 5.86317L11.0581 14.2689C11.0196 14.3087 10.9876 14.3521 10.9596 14.3974C10.9539 14.4066 10.9501 14.4166 10.9449 14.4261C10.9209 14.4691 10.9016 14.5133 10.8866 14.5593C10.8841 14.5673 10.8789 14.574 10.8766 14.5823L9.81832 18.2488C9.74286 18.5112 9.81583 18.7938 10.0087 18.9867C10.1514 19.1294 10.3429 19.2064 10.5388 19.2064C10.6082 19.2064 10.6782 19.1969 10.7467 19.1771L14.4132 18.1188C14.4237 18.1158 14.4326 18.1093 14.4429 18.1058C14.4841 18.0921 14.5234 18.0748 14.5616 18.0541C14.5768 18.0458 14.5923 18.0383 14.6068 18.0291C14.6543 17.9989 14.6995 17.9644 14.7395 17.9236C14.7408 17.9224 14.7423 17.9216 14.7433 17.9204L22.8776 9.51415C23.1622 9.22002 23.1582 8.75197 22.8689 8.46284ZM11.6356 17.3599L11.9649 16.2186L12.7768 17.0305L11.6356 17.3599ZM14.1965 16.3296L12.6486 14.7815L19.7394 7.45351L21.2873 9.00136L14.1965 16.3296Z" fill="current"/>
</svg>
