<svg width="18" height="22" viewBox="0 0 18 22" fill="none" xmlns="http://www.w3.org/2000/svg">
<path d="M14.3714 2.44382C13.5944 2.33939 12.6756 2.26181 11.64 2.21208V2.10491C11.64 1.14263 10.8421 0.359375 9.86115 0.359375H8.31554C7.33462 0.359375 6.53645 1.14263 6.53645 2.10491V2.21183C5.5048 2.26131 4.58653 2.33914 3.80651 2.44382C1.68876 2.72728 0.825195 3.17784 0.825195 3.99914V5.51591C0.825195 5.86278 1.07086 6.15072 1.414 6.21213L2.48593 21.0119C2.51279 21.3814 2.82857 21.6708 3.20553 21.6708H14.9712C15.3479 21.6708 15.6637 21.3814 15.6905 21.0119L16.7627 6.21213C17.1058 6.15072 17.3515 5.86278 17.3515 5.51591V3.99914C17.3515 3.17784 16.4882 2.72728 14.3714 2.44382ZM15.3155 6.22556L14.2993 20.2522H3.87713L2.8609 6.22556H15.3155ZM15.9088 4.22914V4.80676H2.26762V4.22914C2.85916 3.96109 5.13381 3.5717 9.08835 3.5717C13.0429 3.5717 15.3173 3.96109 15.9088 4.22914ZM10.1973 2.16384C9.47202 2.14967 8.70667 2.14967 7.97937 2.16384V2.10491C7.97937 1.92464 8.1303 1.77818 8.31554 1.77818H9.86115C10.0466 1.77818 10.1973 1.92464 10.1973 2.10491V2.16384Z" fill="#2FA8E1"/>
<path d="M5.80267 8.16141C5.77408 7.88814 5.52816 7.69345 5.25589 7.71906C4.98262 7.7479 4.7847 7.99258 4.81329 8.26584L5.90935 18.647C5.9362 18.9024 6.15203 19.0921 6.40316 19.0921C6.42057 19.0921 6.43847 19.0911 6.45613 19.0894C6.72939 19.0606 6.92707 18.8159 6.89848 18.5426L5.80267 8.16141Z" fill="#"/>
<path d="M9.07055 7.7168C8.79603 7.7168 8.57324 7.93959 8.57324 8.2141V18.5953C8.57324 18.8698 8.79603 19.0926 9.07055 19.0926C9.34505 19.0926 9.56784 18.8698 9.56784 18.5953V8.2141C9.56784 7.93959 9.34505 7.7168 9.07055 7.7168Z" fill="current"/>
<path d="M12.8781 7.71886C12.6019 7.69424 12.3619 7.89316 12.3353 8.16643L11.3392 18.5476C11.3129 18.8209 11.5133 19.0641 11.7866 19.0902C11.803 19.0917 11.8189 19.0924 11.8348 19.0924C12.0879 19.0924 12.3045 18.9 12.3294 18.6429L13.3257 8.26166C13.3518 7.98814 13.1517 7.74497 12.8781 7.71886Z" fill="current"/>
</svg>
