<svg xmlns="http://www.w3.org/2000/svg" xmlns:xlink="http://www.w3.org/1999/xlink" width="137.836" height="32.961" viewBox="0 0 137.836 32.961">
  <defs>
    <clipPath id="clip-path">
      <rect width="137.836" height="32.961" fill="none"/>
    </clipPath>
  </defs>
  <g clip-path="url(#clip-path)">
    <path d="M29.876,10.651c-.785-1.894-.655-4.455-2.082-5.882s-3.988-1.3-5.882-2.082C20.085,1.929,18.383,0,16.282,0s-3.8,1.929-5.631,2.687c-1.894.785-4.455.655-5.882,2.082s-1.3,3.988-2.082,5.882C1.929,12.478,0,14.18,0,16.282s1.929,3.8,2.687,5.631c.785,1.894.655,4.455,2.082,5.882s3.988,1.3,5.882,2.082c1.827.758,3.53,2.687,5.631,2.687s3.8-1.929,5.631-2.687c1.894-.785,4.455-.655,5.882-2.082s1.3-3.988,2.082-5.882c.758-1.827,2.687-3.53,2.687-5.631s-1.929-3.8-2.687-5.631M12.1,24.619H7.879v-1.35h2.786V15.081H12.1Zm9.455,0h-1.34V15.081h1.34Zm2.676-11.3h-4.28V9.769H12.122v3.548H7.842V11.855h2.816V8.584H21.415v3.271h2.816Z" fill="#0093d0"/>
    <path d="M848.571,4.786V1.529h-1.843V4.786H831V6.436h4.737V21.915h-4.777v1.607h6.62V6.436h9.145V23.523h1.843V6.436h3.718V4.786Z" transform="translate(-792.394 -1.458)" fill="#1a1311"/>
    <path d="M1397.559,4.786V1.529h-1.843V4.786h-4.326V6.436h4.326V21.915h-4.327v1.607h6.17V6.436h12.511V21.915h-4.777v1.607h6.62V4.786Z" transform="translate(-1326.808 -1.458)" fill="#1a1311"/>
    <path d="M1954.48,4.786V1.529h-1.843V4.786h-2.872V6.436h2.872V23.523h15.98V21.915H1954.48V6.436h14.369v7.387h1.843V4.786Z" transform="translate(-1859.268 -1.458)" fill="#1a1311"/>
    <path d="M2529.811,7.579h-19.4V9.23h9.761V23.38h1.843V9.23h9.712V1.389h-1.921Z" transform="translate(-2393.896 -1.325)" fill="#1a1311"/>
    <path d="M1171.423,607.172h-1.428v.672h2.086v-4.979h-.658Z" transform="translate(-1115.69 -574.883)" fill="#1a1311"/>
    <path d="M1175.5,531.2v-1.863h-5.544V531.2h-1.525v.526h2.183v-1.863h4.229v1.863h2.183V531.2Z" transform="translate(-1114.198 -504.766)" fill="#1a1311"/>
    <rect width="0.658" height="4.979" transform="translate(60.668 27.982)" fill="#1a1311"/>
    <path d="M1603.726,528.814h-7.162v.526h0V531.4h0v.526h0v2.088h0v.526h0v2.686h.658v-2.686h2.913v2.686h.658v-2.686h2.933v2.16h-1.4v.526h2.059v-8.416Zm-3.591,5.2h-2.913V531.93h2.913Zm0-2.614h-2.913V529.34h2.913Zm.658-2.064h2.933V531.4h-2.933Zm0,2.59h2.933v2.088h-2.933Z" transform="translate(-1522.46 -504.269)" fill="#1a1311"/>
    <rect width="2.761" height="0.526" transform="translate(64.107 24.545)" fill="#1a1311"/>
    <path d="M1457.224,521.1h-.774v-.375h-.526v.375H1453.4v-.375h-.526v.375h-.757v.526h.757V522h.526v-.375h2.526V522h.526v-.375h.774Z" transform="translate(-1384.716 -496.555)" fill="#1a1311"/>
    <path d="M1457.224,556.626V556.1h-1.073v-.449h-.526v.449h-1.993v-.449h-.526v.449h-.99v.526h.557v3.05h4.552v-.526h-1.662v-.49h1.569v-.526h-1.569v-.49h1.569v-.526h-1.569v-.49Zm-2.188,2.523H1453.2v-.49h1.838Zm0-1.017H1453.2v-.49h1.838Zm0-1.017H1453.2v-.49h1.838Z" transform="translate(-1384.716 -529.861)" fill="#1a1311"/>
    <rect width="3.174" height="0.526" transform="translate(63.901 25.779)" fill="#1a1311"/>
    <rect width="2.706" height="0.526" transform="translate(64.135 26.954)" fill="#1a1311"/>
    <rect width="2.599" height="0.526" transform="translate(64.188 28.188)" fill="#1a1311"/>
    <path d="M1379.629,638.989h3.026v-3.463h-3.026Zm2.372-.617h-1.791v-2.229H1382Z" transform="translate(-1315.594 -606.028)" fill="#1a1311"/>
    <path d="M1457.223,655.581v-1.373h-.325v-1.283h-4.784v.526h4.257v.757h-2.966v-.433h-.526v.433h-.625l-.015,1.373h.619v-.846h3.746v.846Z" transform="translate(-1384.715 -622.621)" fill="#1a1311"/>
    <path d="M1817.064,531.709v-3.395h-7.57v3.395Zm-6.959-2.868h6.347v2.342h-6.347Z" transform="translate(-1725.507 -503.793)" fill="#1a1311"/>
    <path d="M1805.144,623.374v-4.223h-3.813v4.223Zm-3.2-3.7h2.59v3.171h-2.59Z" transform="translate(-1717.723 -590.413)" fill="#1a1311"/>
    <path d="M1900.822,623.374v-4.223h-3.813v4.223Zm-3.2-3.7h2.59v3.171h-2.59Z" transform="translate(-1808.96 -590.413)" fill="#1a1311"/>
    <path d="M2017.27,521.205v-.526h-3.931v-.491h-.611v.491h-3.963v.526h3.963v.767h-3.665v3.209h6.348v.792h-6.646v.526h1.519v1.57h.611V526.5h4.515v1.979h-2.383V529h2.995V526.5h1.247v-.526h-1.247v-.792h.935v-3.209h-3.618v-.767Zm-4.542,1.294v.791h-3.054V522.5Zm-3.054,1.318h3.054v.839h-3.054Zm3.665,0h3.007v.839h-3.007Zm3.007-1.318v.791h-3.007V522.5Z" transform="translate(-1915.53 -496.044)" fill="#1a1311"/>
    <path d="M2225.659,532.5v-3.766h-3.549v8.42h.612V532.5Zm-2.937-1.6h2.326v1.069h-2.326Zm2.326-1.644v1.118h-2.326v-1.118Z" transform="translate(-2118.972 -504.196)" fill="#1a1311"/>
    <path d="M2325.775,532.5v4.035h-1.651v.619h2.262v-8.42h-3.549V532.5Zm-2.326-1.6h2.326v1.069h-2.326Zm2.326-1.644v1.118h-2.326v-1.118Z" transform="translate(-2215.023 -504.196)" fill="#1a1311"/>
    <path d="M2436.585,521.065v-.86h-.611v.86h-4.146v7.956h.612v-7.429h7.742v-.526Z" transform="translate(-2318.956 -496.06)" fill="#1a1311"/>
    <path d="M2466.817,563.466h-.612v3.274h-2.674v3.534h6.734V566.74h-3.449v-1.774h3.565v-.526h-3.565Zm2.838,6.282h-5.512v-2.481h5.512Z" transform="translate(-2349.189 -537.313)" fill="#1a1311"/>
  </g>
</svg>
